<svg width="32" height="32" fill="none" xmlns="http://www.w3.org/2000/svg"><path d="M17.227 3.013l8.68 4.68c1.013.547 1.013 2.107 0 2.654l-8.68 4.68a2.582 2.582 0 01-2.454 0l-8.68-4.68C5.08 9.8 5.08 8.24 6.093 7.693l8.68-4.68a2.582 2.582 0 012.454 0zM4.813 13.507l8.067 4.04c1 .506 1.64 1.533 1.64 2.653v7.627a1.479 1.479 0 01-2.147 1.32l-8.066-4.04a2.985 2.985 0 01-1.64-2.654v-7.626a1.479 1.479 0 012.146-1.32zm22.374 0l-8.067 4.04a2.985 2.985 0 00-1.64 2.653v7.627a1.479 1.479 0 002.147 1.32l8.066-4.04c1-.507 1.64-1.534 1.64-2.654v-7.626a1.479 1.479 0 00-2.146-1.32z" stroke="#FAFF00" stroke-width="2.5" stroke-linecap="round" stroke-linejoin="round"/></svg>