<svg width="48" height="48" fill="none" xmlns="http://www.w3.org/2000/svg"><path d="M32.228 18.582c1.104-1.104 2.2-3.68-2.4-.552a791.612 791.612 0 01-12.978 8.744 5.399 5.399 0 01-4.234.092c-2.76-.828-5.982-1.932-5.982-1.932s-2.2-1.382 1.566-2.854c0 0 15.922-6.534 21.444-8.836 2.116-.92 9.294-3.864 9.294-3.864s3.314-1.29 3.038 1.84c-.092 1.288-.828 5.8-1.564 10.676-1.106 6.902-2.302 14.45-2.302 14.45s-.184 2.116-1.748 2.484a7.573 7.573 0 01-4.6-1.656c-.368-.276-6.902-4.418-9.296-6.442a1.743 1.743 0 01.092-2.946c3.32-3.036 7.278-6.81 9.67-9.204z" fill="#31384B"/></svg>