<svg width="32" height="32" fill="none" xmlns="http://www.w3.org/2000/svg"><path d="M27.867 8.628a3.406 3.406 0 00-.083-3.365 4.565 4.565 0 00-4.11-1.396 4.723 4.723 0 00-4.34-2.534A5.067 5.067 0 0016 2.533a5.067 5.067 0 00-3.333-1.2 4.723 4.723 0 00-4.342 2.534 4.577 4.577 0 00-4.112 1.396 3.407 3.407 0 00-.08 3.365c-1.302.839-2.8 2.796-2.8 7.372 0 4.576 1.498 6.533 2.8 7.372a3.407 3.407 0 00.083 3.365 4.583 4.583 0 004.11 1.396 4.723 4.723 0 004.34 2.534h6.667a4.723 4.723 0 004.342-2.534 4.566 4.566 0 004.112-1.398 3.405 3.405 0 00.082-3.366c1.3-.836 2.798-2.793 2.798-7.369s-1.498-6.533-2.8-7.372zM19.333 4a2.164 2.164 0 011.876.905L18.115 8h-.782V5.333c0-.709.934-1.333 2-1.333zm-6.666 0c1.066 0 2 .624 2 1.333V8h-.782l-3.094-3.095A2.164 2.164 0 0112.667 4zM26 21.333a1.333 1.333 0 00-1.13 2.04c.854 1.368.72 1.847.722 1.847a4.279 4.279 0 01-2.667.14 1.333 1.333 0 00-1.592 1.307c0 .709-.933 1.333-2 1.333h-2v-2.667a1.333 1.333 0 10-2.666 0V28h-2c-1.067 0-2-.624-2-1.333a1.333 1.333 0 00-1.59-1.308 4.311 4.311 0 01-2.666-.134s-.134-.481.72-1.853a1.333 1.333 0 00.029-1.299 1.39 1.39 0 00-1.105-.74C5.344 21.268 4 20.067 4 16s1.344-5.268 2-5.333a1.333 1.333 0 001.13-2.04c-.854-1.368-.72-1.847-.722-1.847a3.79 3.79 0 012.287-.199l3.696 3.695c.25.25.589.39.942.39h1.334v4h-2.115l-1.885-1.885V12A1.334 1.334 0 008 12v1.333c0 .896.697 1.116 2.115 2.667L8.39 17.724c-.597.597-.321 1.279-.39 2.276a1.333 1.333 0 102.667 0v-.781l1.885-1.886h2.115V20a1.333 1.333 0 102.666 0v-2.667h2.115l1.885 1.886V20A1.333 1.333 0 1024 20c-.07-1.003.212-1.673-.39-2.276L21.884 16C23.265 14.492 24 14.23 24 13.333V12a1.334 1.334 0 00-2.667 0v.781l-1.885 1.886h-2.115v-4h1.334c.353 0 .692-.14.942-.391l3.695-3.695a3.822 3.822 0 012.285.192s.134.482-.72 1.854a1.333 1.333 0 00-.03 1.298 1.39 1.39 0 001.106.742C26.655 10.733 28 11.935 28 16s-1.344 5.268-2 5.333z" fill="#FAFF00"/></svg>