<svg width="32" height="33" fill="none" xmlns="http://www.w3.org/2000/svg"><path d="M29.333 20.5h-2.666v-4a1.334 1.334 0 00-1.334-1.333h-8V12.5H20a1.333 1.333 0 001.333-1.333v-8A1.333 1.333 0 0020 1.833h-8a1.333 1.333 0 00-1.333 1.334v8A1.333 1.333 0 0012 12.5h2.667v2.667h-8A1.333 1.333 0 005.333 16.5v4H2.667a1.333 1.333 0 00-1.334 1.333v8a1.333 1.333 0 001.334 1.334h8A1.334 1.334 0 0012 29.833v-8a1.333 1.333 0 00-1.333-1.333H8v-2.667h16V20.5h-2.667A1.333 1.333 0 0020 21.833v8a1.334 1.334 0 001.333 1.334h8a1.334 1.334 0 001.334-1.334v-8a1.333 1.333 0 00-1.334-1.333zm-20 2.667V28.5H4v-5.333h5.333zm4-13.334V4.5h5.334v5.333h-5.334zM28 28.5h-5.333v-5.333H28V28.5z" fill="#FAFF00"/></svg>