<svg width="32" height="32" fill="none" xmlns="http://www.w3.org/2000/svg"><path d="M26.667 4H5.333a4 4 0 00-4 4v16a4 4 0 004 4h21.334a4 4 0 004-4V8a4 4 0 00-4-4zM28 24a1.333 1.333 0 01-1.333 1.333H5.333A1.333 1.333 0 014 24V8a1.333 1.333 0 011.333-1.333h21.334A1.333 1.333 0 0128 8v16zm-16-8v5.333a1.333 1.333 0 11-2.667 0V16A1.333 1.333 0 1112 16zm5.333-2.667v8a1.333 1.333 0 11-2.666 0v-8a1.334 1.334 0 012.666 0zm5.334-2.666v10.666a1.333 1.333 0 11-2.667 0V10.667a1.333 1.333 0 112.667 0z" fill="#FAFF00"/></svg>