<svg width="40" height="40" fill="none" xmlns="http://www.w3.org/2000/svg"><path d="M19.094 23.473c-.513.556-1.026 1.112-1.539 1.575-.17.185-.341.278-.598.278-.17 0-.256-.093-.342-.278-.342-1.297-.769-2.593-1.11-3.89-.086-.093-.086-.185-.257-.185-.94-.278-1.795-.649-2.735-.927-.086-.092-.257-.092-.342-.185-.171-.185-.257-.37-.086-.556.171-.185.342-.277.513-.37l3.333-1.39c2.821-1.203 5.642-2.408 8.462-3.519.513-.185.94.093.855.741 0 .37-.171.834-.171 1.204-.599 3.15-1.197 6.298-1.88 9.447-.171.741-.599.927-1.197.463-.94-.74-1.88-1.481-2.82-2.315 0 0 0-.093-.086-.093zm-2.137.927c.086 0 .086 0 0 0l.086-.093c.085-.741.085-1.39.17-2.13 0-.186.086-.278.171-.37a718.85 718.85 0 002.65-2.594c.94-.926 1.966-1.853 2.906-2.871.085-.093.085-.186.085-.278-.085 0-.17-.093-.256 0-.085 0-.256.092-.342.185-2.136 1.482-4.273 2.871-6.41 4.353-.085.185-.085.185-.085.37.17.464.341 1.02.427 1.483.256.648.427 1.296.598 1.945z" fill="#FAFF00"/></svg>