<svg width="40" height="40" fill="none" xmlns="http://www.w3.org/2000/svg"><path d="M20 16.08c-2.24 0-4.16 1.927-4.16 4.42 0 2.38 1.813 4.42 4.16 4.42 2.24 0 4.16-1.927 4.16-4.42-.107-2.38-1.92-4.42-4.16-4.42zm0 6.913c-1.28 0-2.347-1.133-2.347-2.493 0-1.36 1.067-2.493 2.347-2.493s2.347 1.133 2.347 2.493c0 1.36-1.067 2.493-2.347 2.493zm5.227-7.026c0 .566-.427 1.02-.96 1.02-.534 0-.96-.454-.96-1.02 0-.567.426-1.02.96-1.02.533 0 .96.453.96 1.02zM23.947 12h-7.894C13.813 12 12 13.927 12 16.307v8.386C12 27.073 13.813 29 16.053 29h7.894C26.187 29 28 27.073 28 24.693v-8.386C28 13.927 26.187 12 23.947 12zm2.24 12.693c0 1.36-1.067 2.38-2.24 2.38h-7.894c-1.28 0-2.24-1.133-2.24-2.38v-8.386c0-1.36 1.067-2.38 2.24-2.38h7.894c1.28 0 2.24 1.133 2.24 2.38v8.386z" fill="#FAFF00"/></svg>