<svg width="140" height="40" fill="none" xmlns="http://www.w3.org/2000/svg"><path d="M20 40v-5.13c7.397 0 13.533-5.4 14.679-12.474H20v-4.792l19.858.003c.094.785.142 1.583.142 2.393 0 11.046-8.954 20-20 20z" fill="#fff"/><path d="M34.142 5.858l-3.627 3.627A14.824 14.824 0 0020 5.129C11.787 5.13 5.13 11.787 5.13 20c0 4.106 1.664 7.824 4.355 10.515l-3.627 3.627A19.937 19.937 0 010 20C0 8.954 8.954 0 20 0a19.937 19.937 0 0114.142 5.858zM127.861 11l4.243 6.765L136.347 11h2.728l-5.577 8.74 5.71 8.91h-2.752l-4.352-6.897-4.352 6.898H125l5.71-8.91L125.133 11h2.728z" fill="#FAFF00"/><path d="M65.438 19.487v6.461c-.219.324-.566.687-1.043 1.091-.477.396-1.135.744-1.976 1.043-.832.29-1.907.436-3.225.436-1.075 0-2.065-.186-2.97-.557a6.7 6.7 0 01-2.34-1.649c-.654-.727-1.163-1.608-1.527-2.643-.355-1.042-.533-2.222-.533-3.54v-1.37c0-1.317.153-2.493.46-3.527.316-1.035.776-1.912 1.382-2.631a5.793 5.793 0 012.231-1.649c.88-.38 1.891-.57 3.03-.57 1.35 0 2.478.235 3.383.704.913.46 1.624 1.099 2.134 1.915.517.816.848 1.746.994 2.788h-2.34a4.908 4.908 0 00-.63-1.745 3.37 3.37 0 00-1.322-1.261c-.574-.323-1.313-.485-2.218-.485-.817 0-1.524.15-2.122.448a3.906 3.906 0 00-1.479 1.285c-.388.558-.679 1.233-.873 2.025-.185.792-.278 1.685-.278 2.68v1.393c0 1.019.117 1.928.351 2.728.243.8.586 1.483 1.03 2.049a4.45 4.45 0 001.589 1.273c.622.29 1.309.436 2.06.436.833 0 1.508-.069 2.025-.206.517-.145.921-.315 1.212-.51.291-.201.514-.391.667-.569v-3.952h-4.085v-1.891h6.413zm6.279 8.789V18.95c.157-.367.363-.686.618-.955a2.86 2.86 0 011.006-.68c.396-.16.853-.242 1.37-.242.21 0 .396.008.558.025.17.008.347.032.533.072l.012-2.085a1.655 1.655 0 00-.436-.109c-.21-.04-.396-.06-.558-.06-.711 0-1.325.153-1.842.46-.51.3-.93.72-1.261 1.26l-.016.027-.045-1.505h-2.182v13.117h2.243z" fill="#fff"/><path fill-rule="evenodd" clip-rule="evenodd" d="M77.547 21.584v.279c0 .945.138 1.822.413 2.63.274.809.67 1.516 1.188 2.122a5.623 5.623 0 001.89 1.406c.736.332 1.565.497 2.486.497.921 0 1.746-.165 2.473-.497a5.498 5.498 0 001.879-1.406 6.293 6.293 0 001.2-2.121 8.122 8.122 0 00.412-2.631v-.279c0-.945-.137-1.822-.412-2.63a6.142 6.142 0 00-1.2-2.122 5.273 5.273 0 00-1.891-1.406c-.736-.34-1.564-.51-2.485-.51-.914 0-1.738.17-2.473.51a5.3 5.3 0 00-1.88 1.406 6.252 6.252 0 00-1.187 2.121 8.123 8.123 0 00-.413 2.631zm2.243.279v-.279c0-.646.077-1.257.23-1.83a4.865 4.865 0 01.692-1.54 3.487 3.487 0 011.163-1.067c.469-.258 1.01-.388 1.625-.388.622 0 1.163.13 1.624.388a3.34 3.34 0 011.164 1.067c.315.444.55.958.703 1.54.162.573.243 1.183.243 1.83v.279c0 .654-.081 1.273-.243 1.855a4.885 4.885 0 01-.69 1.527 3.385 3.385 0 01-1.165 1.055c-.46.25-.998.376-1.612.376-.622 0-1.168-.126-1.637-.376a3.496 3.496 0 01-1.175-1.055 4.88 4.88 0 01-.692-1.527 7.242 7.242 0 01-.23-1.855z" fill="#fff"/><path d="M95.416 28.276h1.83l3.106-9.931 3.186 9.93h1.819l3.806-13.116h-2.23l-2.53 9.996-3.107-9.996h-1.807l-3.058 9.792-2.579-9.792H91.61l3.807 13.117z" fill="#fff"/><path fill-rule="evenodd" clip-rule="evenodd" d="M114.921 28.058c.744.307 1.572.46 2.485.46.865 0 1.613-.12 2.243-.363.638-.243 1.176-.558 1.612-.946a6.258 6.258 0 001.079-1.224l-1.357-1.08a5.003 5.003 0 01-1.443 1.298c-.55.323-1.22.485-2.012.485-.615 0-1.164-.117-1.649-.352a3.668 3.668 0 01-1.225-.97 4.489 4.489 0 01-.763-1.43 5.824 5.824 0 01-.253-1.588h8.872v-1.006c0-.922-.105-1.77-.315-2.546-.21-.784-.534-1.463-.97-2.037a4.417 4.417 0 00-1.685-1.358c-.679-.323-1.487-.485-2.425-.485-.735 0-1.446.15-2.133.449-.687.3-1.301.74-1.843 1.321-.541.582-.97 1.294-1.285 2.134-.315.832-.473 1.782-.473 2.849v.51c0 .92.142 1.769.425 2.545a5.854 5.854 0 001.212 2.012 5.632 5.632 0 001.903 1.322zm-1.217-7.54c.042-.338.104-.653.187-.946.169-.607.408-1.12.715-1.54a3.051 3.051 0 012.509-1.273c.768 0 1.374.178 1.819.534.444.355.768.808.97 1.357.21.55.331 1.116.363 1.698v.17h-6.563z" fill="#fff"/></svg>