<svg width="48" height="48" fill="none" xmlns="http://www.w3.org/2000/svg"><path d="M44 4H4a2 2 0 00-2 2v36a2 2 0 002 2h40a2 2 0 002-2V6a2 2 0 00-2-2zm-2 36H6V8h36v32zm-32-8a2 2 0 012-2h.4a25.836 25.836 0 0018.386-7.616l.386-.384H28a2 2 0 010-4h8a2 2 0 012 2v8a2 2 0 01-4 0v-3.172l-.384.384A29.8 29.8 0 0112.4 34H12a2 2 0 01-2-2zm.586-11.414L12.172 19l-1.586-1.586a2 2 0 112.828-2.828L15 16.172l1.586-1.586a2 2 0 112.828 2.828L17.828 19l1.586 1.586a2 2 0 11-2.828 2.828L15 21.828l-1.586 1.586a2 2 0 01-2.828-2.828z" fill="#31384B"/></svg>