<svg width="32" height="32" fill="none" xmlns="http://www.w3.org/2000/svg"><path d="M5.839 20.267l1.299.75-1.3-.75zm6.466-11.2l-1.3-.75 1.3.75zm7.39 0l1.3-.75-1.3.75zm6.467 11.2l1.299-.75-1.3.75zM14.915 5.564l.61 1.37-.61-1.37zm2.17 0l-.61 1.37.61-1.37zM5.195 26.157l-.881 1.214.881-1.214zM4.11 24.28l1.492-.157-1.492.157zm22.695 1.878l.881 1.214-.881-1.214zm1.085-1.878l1.491.157-1.491-.157zm-11.824-2.946h1.5a1.5 1.5 0 00-1.5-1.5v1.5zm0 .134v1.5a1.5 1.5 0 001.5-1.5h-1.5zm-.132 0h-1.5a1.5 1.5 0 001.5 1.5v-1.5zm0-.134v-1.5a1.5 1.5 0 00-1.5 1.5h1.5zM17.5 12a1.5 1.5 0 00-3 0h3zm-3 5.333a1.5 1.5 0 103 0h-3zm7.966 7.834H9.534v3h12.932v-3zm-15.328-4.15l6.466-11.2-2.598-1.5-6.466 11.2 2.598 1.5zm11.258-11.2l6.467 11.2 2.598-1.5-6.467-11.2-2.598 1.5zm-4.792 0c.621-1.076 1.036-1.792 1.389-2.292.357-.506.514-.583.532-.59l-1.22-2.742c-.773.345-1.316.97-1.762 1.601-.451.639-.946 1.498-1.537 2.523l2.598 1.5zm7.39-1.5c-.591-1.025-1.086-1.884-1.537-2.523-.447-.632-.989-1.256-1.762-1.6l-1.22 2.74c.018.008.174.085.532.591.353.5.768 1.216 1.39 2.292l2.597-1.5zm-5.469-1.383c.302-.134.647-.134.95 0l1.22-2.74a4.167 4.167 0 00-3.39 0l1.22 2.74zM9.534 25.167c-1.242 0-2.07-.002-2.679-.058-.617-.056-.762-.153-.778-.165L4.314 27.37c.684.497 1.496.655 2.267.726.779.071 1.77.07 2.953.07v-3zm-4.994-5.65c-.592 1.024-1.089 1.882-1.416 2.592-.325.703-.594 1.485-.505 2.326l2.983-.313c-.002-.02-.013-.194.246-.757.256-.555.669-1.273 1.29-2.348l-2.598-1.5zm1.537 5.427a1.167 1.167 0 01-.475-.822l-2.983.314a4.167 4.167 0 001.695 2.935l1.763-2.427zm16.39 3.223c1.183 0 2.174.001 2.952-.07.771-.071 1.583-.229 2.267-.726l-1.763-2.427c-.016.012-.161.109-.778.165-.609.056-1.436.058-2.678.058v3zm2.396-7.15c.62 1.075 1.033 1.793 1.29 2.348.259.563.247.737.245.757l2.983.314c.089-.842-.18-1.624-.505-2.327-.327-.71-.824-1.568-1.415-2.592l-2.598 1.5zm2.823 6.354a4.167 4.167 0 001.695-2.935l-2.983-.314a1.168 1.168 0 01-.475.822l1.764 2.427zm-13.12-6.038v.134h3v-.134h-3zm1.5-1.366h-.132v3h.132v-3zm1.368 1.5v-.134h-3v.134h3zm-1.5 1.366h.132v-3h-.132v3zM14.5 12v5.333h3V12h-3z" fill="#FAFF00"/></svg>